<?xml version="1.0" encoding="UTF-8" standalone="no"?>
<svg
   fill="#000000"
   viewBox="0 0 32 32"
   width="32"
   height="32"
   version="1.1"
   id="svg4"
   sodipodi:docname="duolingo-logo.svg"
   inkscape:version="1.2.1 (9c6d41e410, 2022-07-14)"
   xmlns:inkscape="http://www.inkscape.org/namespaces/inkscape"
   xmlns:sodipodi="http://sodipodi.sourceforge.net/DTD/sodipodi-0.dtd"
   xmlns="http://www.w3.org/2000/svg"
   xmlns:svg="http://www.w3.org/2000/svg">
  <defs
     id="defs8" />
  <sodipodi:namedview
     id="namedview6"
     pagecolor="#ffffff"
     bordercolor="#000000"
     borderopacity="0.25"
     inkscape:showpageshadow="2"
     inkscape:pageopacity="0.0"
     inkscape:pagecheckerboard="0"
     inkscape:deskcolor="#d1d1d1"
     showgrid="false"
     inkscape:zoom="4.76"
     inkscape:cx="42.226891"
     inkscape:cy="42.226891"
     inkscape:window-width="1366"
     inkscape:window-height="703"
     inkscape:window-x="0"
     inkscape:window-y="0"
     inkscape:window-maximized="1"
     inkscape:current-layer="svg4" />
  <path
     d="M 6.4153222,0 C 2.8894162,0 0,2.8894152 0,6.4153232 V 25.584677 C 0,29.110585 2.8894162,32 6.4153222,32 H 25.584677 C 29.110584,32 32,29.111121 32,25.585686 V 6.4153232 C 32,2.8894152 29.111121,0 25.585686,0 Z m 0,1.0322582 H 25.585686 c 2.962305,0 5.382056,2.420197 5.382056,5.383065 v 3.7631038 c -0.168017,-0.2166968 -0.343237,-0.4272088 -0.53125,-0.6260078 -0.05241,-0.720965 -0.157325,-1.61807 -0.399194,-2.377016 -0.125092,-0.392519 -0.28306,-0.747995 -0.503024,-1.023185 -0.219964,-0.275191 -0.52696,-0.474799 -0.889113,-0.474799 -0.290174,0 -0.53982,0.13625 -0.719758,0.319557 -0.179938,0.183306 -0.308541,0.411385 -0.422379,0.645161 -0.08657,0.177768 -0.150962,0.280581 -0.227823,0.451613 -0.02074,-0.48395 -0.0087,-0.887866 -0.133064,-1.495968 -0.09949,-0.486397 -0.245624,-0.957497 -0.490927,-1.330645 -0.245304,-0.373147 -0.624203,-0.654234 -1.102823,-0.654234 -0.39371,0 -0.746154,0.201581 -1.069556,0.492943 -0.323403,0.291364 -0.632749,0.682546 -0.959678,1.132057 -0.653858,0.899021 -1.374739,2.033725 -2.290322,3.044355 a 0.25809032,0.25809032 0 1 0 0.383064,0.345766 c 0.953836,-1.052854 1.686583,-2.209457 2.324597,-3.086694 0.319007,-0.438618 0.615313,-0.806652 0.888104,-1.052419 0.272792,-0.245766 0.507952,-0.359879 0.723791,-0.359879 0.290412,0 0.48619,0.13968 0.671371,0.421371 0.185181,0.281691 0.325216,0.699824 0.417338,1.150202 0.184246,0.900754 0.188219,1.912011 0.201613,2.308467 a 0.25809032,0.25809032 0 0 0 0.451613,0.161291 c 0.314256,-0.356372 0.471549,-0.879649 0.67742,-1.302419 0.102936,-0.211386 0.213648,-0.393992 0.326612,-0.509073 0.112966,-0.11508 0.210013,-0.165323 0.350807,-0.165323 0.182363,0 0.328755,0.08467 0.485887,0.28125 0.157133,0.196584 0.300697,0.500341 0.414315,0.856855 0.227235,0.713027 0.34293,1.629939 0.391129,2.337701 a 0.25809032,0.25809032 0 0 0 0.07157,0.162299 c 0.364302,0.3753428 0.684274,0.7936758 0.959677,1.2439518 V 21.4375 c -1.226238,1.995879 -3.42613,3.336694 -5.935484,3.336694 -2.167061,0 -4.390128,-1.004356 -5.811492,-2.55746 l 0.173387,-0.02621 a 0.25809032,0.25809032 0 0 0 0.21875,-0.25504 c 0,-2.135489 -1.722453,-3.870967 -3.612903,-3.870967 -1.890451,0 -3.612903,1.735478 -3.612903,3.870968 a 0.25809032,0.25809032 0 0 0 0.218749,0.25504 l 0.173388,0.02621 c -1.421365,1.553104 -3.6444308,2.55746 -5.8114918,2.55746 -0.498427,0 -0.984371,-0.0532 -1.45363,-0.153226 a 0.25821522,0.25821522 0 1 0 -0.107862,0.50504 c 0.504161,0.107462 1.026628,0.164315 1.561492,0.164315 2.440435,0 4.8990288,-1.16379 6.4122978,-2.980847 l 0.05242,0.0081 c -0.0029,0.04506 -0.0131,0.08845 -0.0131,0.134073 0,1.297063 1.17407,2.322581 2.580645,2.322581 1.406576,0 2.580645,-1.025518 2.580645,-2.322581 0,-0.04547 -0.01023,-0.08905 -0.0131,-0.134073 l 0.05242,-0.0081 c 1.513268,1.817057 3.971862,2.980847 6.412298,2.980847 2.413703,0 4.565578,-1.154638 5.935484,-2.937501 v 3.232864 c 0,2.962306 -2.420197,5.382056 -5.383065,5.382056 H 6.4153192 c -2.962867,0 -5.383064,-2.420197 -5.383064,-5.383065 v -3.233871 c 0.5892965,0.767478 1.320568,1.42114 2.159274,1.913306 a 0.25809032,0.25809032 0 1 0 0.261091,-0.444556 C 2.4622542,23.238394 1.6317022,22.415072 1.0322582,21.4375 V 11.075605 C 1.3076605,10.625329 1.6276325,10.206996 1.9919353,9.8316532 a 0.25809032,0.25809032 0 0 0 0.071573,-0.162299 c 0.048201,-0.707762 0.1638932,-1.624674 0.3911279,-2.337701 0.113618,-0.356514 0.257183,-0.660271 0.414316,-0.856855 0.157114,-0.196583 0.303523,-0.28125 0.485887,-0.28125 0.140794,0 0.23784,0.05024 0.350806,0.165323 0.112965,0.11508 0.223677,0.297687 0.326613,0.509073 0.205871,0.42277 0.363163,0.946047 0.67742,1.302419 a 0.25809032,0.25809032 0 0 0 0.451612,-0.161291 c 0.01339,-0.396456 0.01737,-1.407713 0.201613,-2.308467 0.09212,-0.450378 0.232158,-0.868511 0.417339,-1.150202 0.18518,-0.281691 0.380959,-0.421371 0.671371,-0.421371 0.182795,0 0.376057,0.07928 0.599798,0.255041 0.223741,0.175764 0.467082,0.443686 0.724798,0.774193 0.515434,0.661014 1.090971,1.56814 1.793347,2.482864 C 10.974309,9.4705742 12.927536,11.354839 16,11.354839 c 0.874148,0 1.661553,-0.152287 2.36996,-0.413307 A 0.25809032,0.25809032 0 1 0 18.191532,10.457661 C 17.53839,10.698318 16.814627,10.83871 16,10.83871 c -2.86302,0 -4.651728,-1.7286398 -6.0211698,-3.5120978 -0.68472,-0.891728 -1.254344,-1.791054 -1.795362,-2.484879 -0.27051,-0.346912 -0.533217,-0.643505 -0.8125,-0.862903 -0.279284,-0.219396 -0.586022,-0.365927 -0.919355,-0.365927 -0.478621,0 -0.85752,0.281087 -1.102823,0.654234 -0.245303,0.373148 -0.391437,0.844248 -0.490927,1.330645 -0.124385,0.608102 -0.112319,1.012018 -0.133064,1.495968 -0.07686,-0.171032 -0.141259,-0.273845 -0.227823,-0.451613 -0.113839,-0.233776 -0.242441,-0.461855 -0.422379,-0.645161 -0.179938,-0.183307 -0.429585,-0.319557 -0.719758,-0.319557 -0.362153,0 -0.66915,0.199608 -0.889113,0.474799 -0.2199648,0.27519 -0.3779324,0.630666 -0.5030245,1.023185 -0.2418692,0.758946 -0.3467796,1.656051 -0.3991933,2.377016 -0.1880141,0.198799 -0.363232,0.409311 -0.5312502,0.6260078 V 6.4153232 c 0,-2.962868 2.420197,-5.383065 5.383064,-5.383065 z M 20.38004,9.1955642 a 0.25809032,0.25809032 0 0 0 -0.158266,0.0625 c -0.308575,0.257479 -0.636809,0.494246 -0.986895,0.701613 a 0.25809032,0.25809032 0 1 0 0.263105,0.4435478 c 0.376623,-0.223086 0.728147,-0.4758908 1.055443,-0.7489918 A 0.25809032,0.25809032 0 0 0 20.38004,9.1955632 Z M 7.4838712,9.8064522 a 0.25809032,0.25809032 0 1 0 0,0.5161288 c 2.426236,0 4.3870968,1.96086 4.3870968,4.387096 v 3.096775 c 0,2.426236 -1.9608608,4.387097 -4.3870968,4.387097 -2.426237,0 -4.387097,-1.960861 -4.387097,-4.387097 v -3.096775 c 0,-0.853625 0.242646,-1.648418 0.663306,-2.321572 a 0.25809032,0.25809032 0 1 0 -0.437499,-0.273186 c -0.470179,0.752395 -0.741936,1.642964 -0.741936,2.594758 v 3.096775 c 0,2.705118 2.198107,4.903225 4.903226,4.903225 2.7051178,0 4.9032258,-2.198107 4.9032258,-4.903225 v -3.096775 c 0,-2.705118 -2.198108,-4.9032248 -4.9032258,-4.9032248 z m 17.5483868,0 c -2.705118,0 -4.903226,2.1981068 -4.903226,4.9032248 v 3.096775 c 0,2.705118 2.198108,4.903225 4.903226,4.903225 2.705118,0 4.903225,-2.198107 4.903225,-4.903225 v -3.096775 c 0,-0.675939 -0.137148,-1.321403 -0.38508,-1.908266 C 28.805442,11.041189 27.061006,9.8064522 25.032258,9.8064522 Z M 5.9435482,10.069557 a 0.25809032,0.25809032 0 0 0 -0.09375,0.01613 c -0.614278,0.216933 -1.171385,0.552432 -1.645161,0.978831 a 0.25809032,0.25809032 0 1 0 0.344758,0.383065 c 0.424288,-0.38186 0.922697,-0.681094 1.471775,-0.875001 a 0.25809032,0.25809032 0 0 0 -0.07762,-0.503024 z m 19.0887098,0.253024 c 1.81951,0 3.376202,1.105464 4.042339,2.679435 0.221745,0.52488 0.344757,1.101536 0.344757,1.707661 v 3.096775 c 0,2.426236 -1.96086,4.387097 -4.387096,4.387097 -2.426236,0 -4.387097,-1.960861 -4.387097,-4.387097 v -3.096775 c 0,-2.426236 1.960861,-4.387096 4.387097,-4.387096 z M 8.2580642,12.387097 c -0.531798,0 -1.02652,0.160825 -1.438508,0.435483 a 0.25809032,0.25809032 0 0 0 -0.02621,0.409275 c 0.264037,0.229968 0.43246,0.577728 0.43246,0.961693 0,0.717896 -0.572427,1.290323 -1.290323,1.290323 a 0.25809032,0.25809032 0 0 0 -0.258064,0.258064 v 1.806452 c 0,1.424039 1.156606,2.580645 2.580645,2.580645 1.424039,0 2.5806448,-1.156606 2.5806448,-2.580645 v -2.580645 c 0,-0.70837 -0.285953,-1.357184 -0.756048,-1.822581 l -9.84e-4,-9.85e-4 C 9.6162352,12.673512 8.9669592,12.38712 8.2580872,12.38712 Z m 15.9999998,0 c -0.531798,0 -1.02652,0.160825 -1.438507,0.435483 a 0.25809032,0.25809032 0 0 0 -0.02621,0.409275 c 0.264036,0.229968 0.432459,0.577728 0.432459,0.961693 0,0.717896 -0.572426,1.290323 -1.290323,1.290323 a 0.25809032,0.25809032 0 0 0 -0.258064,0.258064 v 1.806452 c 0,1.424039 1.156606,2.580645 2.580645,2.580645 1.424039,0 2.580645,-1.156606 2.580645,-2.580645 v -2.580645 c 0,-0.70837 -0.285953,-1.357184 -0.756048,-1.822581 l -9.84e-4,-9.85e-4 C 25.616234,12.673512 24.966958,12.38712 24.258087,12.38712 Z M 16,18.580645 c 1.504188,0 2.935409,1.391012 3.053427,3.140121 l -0.310484,0.04738 a 0.25809032,0.25809032 0 0 0 -0.131048,0.02016 L 16,22.190524 13.354838,21.783266 a 0.25809032,0.25809032 0 0 0 -0.0746,-0.01109 l -0.33367,-0.05141 c 0.118018,-1.749109 1.54924,-3.140121 3.053428,-3.140121 z m -2.059476,3.815524 2.020161,0.310484 a 0.25809032,0.25809032 0 0 0 0.07863,0 l 2.020162,-0.310484 c 6.81e-4,0.01876 0.005,0.03656 0.005,0.05544 0,0.983195 -0.905931,1.806452 -2.064516,1.806452 -1.158586,0 -2.064516,-0.823257 -2.064516,-1.806452 0,-0.01906 0.0044,-0.0366 0.005,-0.05544 z"
     id="path2"
     style="stroke-width:0.516129" />
</svg>
