<svg width="139" height="211" viewBox="0 0 139 211" fill="none" xmlns="http://www.w3.org/2000/svg">
<rect width="138" height="180.183" transform="translate(0.5)" fill="#109648"/>
<path d="M108.844 80.1052C108.844 52.874 56.3855 23.3735 30.1562 12.0271V134.479C56.3855 127.701 108.844 101.766 108.844 80.1052Z" fill="white"/>
<path d="M96.2451 72.0375C96.2451 74.2959 94.4143 76.1266 92.156 76.1266C89.8976 76.1266 88.0669 74.2959 88.0669 72.0375C88.0669 69.7792 89.8976 67.9484 92.156 67.9484C94.4143 67.9484 96.2451 69.7792 96.2451 72.0375Z" fill="white"/>
<path d="M60.6588 49.6027C54.1752 59.0334 45.0981 81.7851 60.6588 97.3458M108.844 80.9893C107.002 84.5995 101.373 90.6264 93.5927 85.8521M30.1562 12.0271C56.3855 23.3735 108.844 52.874 108.844 80.1052C108.844 101.766 56.3855 127.701 30.1562 134.479V12.0271ZM96.2451 72.0375C96.2451 74.2959 94.4143 76.1266 92.156 76.1266C89.8976 76.1266 88.0669 74.2959 88.0669 72.0375C88.0669 69.7792 89.8976 67.9484 92.156 67.9484C94.4143 67.9484 96.2451 69.7792 96.2451 72.0375Z" stroke="#109648" stroke-width="6.63099" stroke-linecap="round"/>
<path d="M20.0975 163.156V149.682H26.2182C27.681 149.682 28.9706 149.965 30.0869 150.529C31.2032 151.081 32.0758 151.857 32.7045 152.858C33.3333 153.859 33.6477 155.046 33.6477 156.419C33.6477 157.779 33.3333 158.966 32.7045 159.98C32.0758 160.981 31.2032 161.763 30.0869 162.328C28.9706 162.88 27.681 163.156 26.2182 163.156H20.0975ZM23.2156 160.596H26.0642C26.9624 160.596 27.7387 160.429 28.3931 160.095C29.0604 159.749 29.5736 159.261 29.9329 158.632C30.305 158.004 30.4911 157.266 30.4911 156.419C30.4911 155.559 30.305 154.821 29.9329 154.206C29.5736 153.577 29.0604 153.096 28.3931 152.762C27.7387 152.415 26.9624 152.242 26.0642 152.242H23.2156V160.596ZM40.7147 163.309C39.6112 163.309 38.6296 163.079 37.7699 162.617C36.923 162.155 36.2494 161.526 35.7489 160.73C35.2613 159.922 35.0175 159.005 35.0175 157.978C35.0175 156.939 35.2613 156.021 35.7489 155.226C36.2494 154.417 36.923 153.788 37.7699 153.339C38.6296 152.877 39.6112 152.646 40.7147 152.646C41.8054 152.646 42.7806 152.877 43.6403 153.339C44.5001 153.788 45.1737 154.411 45.6613 155.206C46.1489 156.002 46.3927 156.926 46.3927 157.978C46.3927 159.005 46.1489 159.922 45.6613 160.73C45.1737 161.526 44.5001 162.155 43.6403 162.617C42.7806 163.079 41.8054 163.309 40.7147 163.309ZM40.7147 160.846C41.2152 160.846 41.6643 160.73 42.0621 160.499C42.4598 160.268 42.7742 159.941 43.0052 159.518C43.2361 159.081 43.3516 158.568 43.3516 157.978C43.3516 157.375 43.2361 156.862 43.0052 156.438C42.7742 156.015 42.4598 155.688 42.0621 155.457C41.6643 155.226 41.2152 155.11 40.7147 155.11C40.2143 155.11 39.7652 155.226 39.3674 155.457C38.9697 155.688 38.6489 156.015 38.4051 156.438C38.1741 156.862 38.0586 157.375 38.0586 157.978C38.0586 158.568 38.1741 159.081 38.4051 159.518C38.6489 159.941 38.9697 160.268 39.3674 160.499C39.7652 160.73 40.2143 160.846 40.7147 160.846ZM48.3997 163.156V148.874H51.4023V163.156H48.3997ZM54.1889 163.156V148.874H57.1915V163.156H54.1889ZM66.3298 163.156V161.135L66.1373 160.692V157.073C66.1373 156.432 65.9384 155.931 65.5407 155.572C65.1557 155.213 64.5591 155.033 63.7507 155.033C63.1989 155.033 62.6536 155.123 62.1146 155.303C61.5885 155.469 61.1394 155.7 60.7673 155.996L59.6895 153.898C60.2541 153.5 60.9341 153.192 61.7297 152.974C62.5252 152.756 63.3336 152.646 64.1549 152.646C65.7331 152.646 66.9586 153.019 67.8311 153.763C68.7036 154.507 69.1399 155.668 69.1399 157.247V163.156H66.3298ZM63.1732 163.309C62.3649 163.309 61.6719 163.175 61.0945 162.905C60.5171 162.623 60.0744 162.244 59.7665 161.77C59.4585 161.295 59.3045 160.762 59.3045 160.172C59.3045 159.556 59.4521 159.017 59.7472 158.555C60.0552 158.093 60.5364 157.734 61.1908 157.478C61.8452 157.208 62.6985 157.073 63.7507 157.073H66.503V158.825H64.0779C63.3721 158.825 62.8845 158.94 62.6151 159.171C62.3584 159.402 62.2301 159.691 62.2301 160.037C62.2301 160.422 62.3777 160.73 62.6728 160.961C62.9808 161.179 63.3978 161.289 63.9239 161.289C64.4243 161.289 64.8734 161.173 65.2712 160.942C65.669 160.698 65.9577 160.345 66.1373 159.883L66.5993 161.269C66.3811 161.937 65.9834 162.443 65.4059 162.79C64.8285 163.136 64.0843 163.309 63.1732 163.309ZM71.8574 163.156V152.8H74.7253V155.726L74.3211 154.879C74.629 154.148 75.123 153.596 75.8031 153.224C76.4832 152.839 77.3108 152.646 78.286 152.646V155.418C78.1577 155.405 78.0422 155.399 77.9396 155.399C77.8369 155.386 77.7278 155.38 77.6124 155.38C76.7911 155.38 76.1239 155.617 75.6106 156.092C75.1102 156.554 74.86 157.279 74.86 158.267V163.156H71.8574ZM83.1326 155.745H89.5997V158.247H83.1326V155.745ZM83.3636 163.156H80.2455V149.682H90.4273V152.185H83.3636V163.156ZM92.3265 163.156V152.8H95.3291V163.156H92.3265ZM93.8278 151.357C93.276 151.357 92.8269 151.196 92.4805 150.876C92.134 150.555 91.9608 150.157 91.9608 149.682C91.9608 149.208 92.134 148.81 92.4805 148.489C92.8269 148.168 93.276 148.008 93.8278 148.008C94.3796 148.008 94.8287 148.162 95.1751 148.47C95.5216 148.765 95.6948 149.15 95.6948 149.625C95.6948 150.125 95.5216 150.542 95.1751 150.876C94.8415 151.196 94.3924 151.357 93.8278 151.357ZM101.6 163.309C100.714 163.309 99.8608 163.207 99.0396 163.002C98.2312 162.783 97.5896 162.514 97.1149 162.193L98.1157 160.037C98.5905 160.333 99.1487 160.576 99.7903 160.769C100.445 160.948 101.086 161.038 101.715 161.038C102.408 161.038 102.896 160.955 103.178 160.788C103.473 160.621 103.62 160.39 103.62 160.095C103.62 159.851 103.505 159.672 103.274 159.556C103.056 159.428 102.761 159.332 102.389 159.268C102.017 159.203 101.606 159.139 101.157 159.075C100.721 159.011 100.278 158.928 99.8288 158.825C99.3797 158.709 98.969 158.543 98.5969 158.324C98.2248 158.106 97.9233 157.811 97.6923 157.439C97.4742 157.067 97.3651 156.586 97.3651 155.996C97.3651 155.341 97.5512 154.764 97.9233 154.263C98.3082 153.763 98.86 153.371 99.5785 153.089C100.297 152.794 101.157 152.646 102.158 152.646C102.863 152.646 103.582 152.723 104.313 152.877C105.045 153.031 105.654 153.256 106.142 153.551L105.141 155.688C104.641 155.392 104.134 155.194 103.62 155.091C103.12 154.975 102.632 154.918 102.158 154.918C101.49 154.918 101.003 155.007 100.695 155.187C100.387 155.367 100.233 155.598 100.233 155.88C100.233 156.137 100.342 156.329 100.56 156.457C100.791 156.586 101.093 156.688 101.465 156.765C101.837 156.842 102.241 156.913 102.677 156.977C103.126 157.028 103.576 157.112 104.025 157.227C104.474 157.343 104.878 157.51 105.237 157.728C105.609 157.933 105.911 158.222 106.142 158.594C106.373 158.953 106.488 159.428 106.488 160.018C106.488 160.66 106.296 161.231 105.911 161.731C105.526 162.219 104.968 162.604 104.236 162.886C103.518 163.168 102.639 163.309 101.6 163.309ZM114.635 152.646C115.456 152.646 116.187 152.813 116.829 153.147C117.483 153.468 117.997 153.968 118.369 154.648C118.741 155.315 118.927 156.175 118.927 157.227V163.156H115.924V157.689C115.924 156.855 115.738 156.239 115.366 155.842C115.007 155.444 114.494 155.245 113.826 155.245C113.352 155.245 112.922 155.348 112.537 155.553C112.165 155.745 111.87 156.047 111.651 156.457C111.446 156.868 111.343 157.394 111.343 158.036V163.156H108.341V148.874H111.343V155.668L110.67 154.802C111.042 154.109 111.574 153.577 112.267 153.205C112.96 152.833 113.749 152.646 114.635 152.646Z" fill="white"/>
<path d="M0.5 179.787H138.5V195.604V203.679C138.5 206.394 135.306 207.847 133.259 206.064L123.328 197.414C122.137 196.376 120.363 196.376 119.172 197.414L106.078 208.82C104.887 209.857 103.113 209.857 101.922 208.82L88.8277 197.414C87.6368 196.376 85.8632 196.376 84.6723 197.414L71.5777 208.82C70.3868 209.857 68.6132 209.857 67.4223 208.82L54.3277 197.414C53.1368 196.376 51.3632 196.376 50.1723 197.414L37.0777 208.82C35.8868 209.857 34.1132 209.857 32.9223 208.82L19.8277 197.414C18.6368 196.376 16.8632 196.376 15.6723 197.414L5.74105 206.064C3.69422 207.847 0.5 206.394 0.5 203.679V179.787Z" fill="#109648"/>
</svg>
