<svg width="60" height="92" viewBox="0 0 60 92" fill="none" xmlns="http://www.w3.org/2000/svg">
<path d="M0 0H59.8107V84.9166V88.3192C59.8107 89.4887 58.4404 90.1213 57.5503 89.3626L53.2238 85.6747C52.7113 85.2379 51.9575 85.2379 51.445 85.6747L45.7474 90.5312C45.235 90.968 44.4811 90.968 43.9687 90.5312L38.2711 85.6747C37.7586 85.2379 37.0048 85.2379 36.4923 85.6747L30.7947 90.5312C30.2823 90.968 29.5284 90.968 29.016 90.5312L23.3184 85.6747C22.8059 85.2379 22.0521 85.2379 21.5396 85.6747L15.8421 90.5312C15.3296 90.968 14.5758 90.968 14.0633 90.5312L8.36572 85.6747C7.85326 85.2379 7.09943 85.2379 6.58696 85.6747L2.2604 89.3626C1.37031 90.1213 0 89.4887 0 88.3192V0Z" fill="#109648"/>
<path d="M44.6482 47.7855C44.6482 37.8713 25.5494 27.1309 16 23V67.5817C25.5494 65.1139 44.6482 55.6718 44.6482 47.7855Z" fill="white"/>
<path d="M40.0613 44.8483C40.0613 45.6705 39.3947 46.337 38.5725 46.337C37.7503 46.337 37.0838 45.6705 37.0838 44.8483C37.0838 44.0261 37.7503 43.3595 38.5725 43.3595C39.3947 43.3595 40.0613 44.0261 40.0613 44.8483Z" fill="white"/>
<path d="M27.1052 36.6803C24.7447 40.1138 21.4399 48.3971 27.1052 54.0624M44.6482 48.1074C43.9776 49.4218 41.9282 51.616 39.0956 49.8778M16 23C25.5494 27.1309 44.6482 37.8713 44.6482 47.7855C44.6482 55.6718 25.5494 65.1139 16 67.5817V23ZM40.0613 44.8483C40.0613 45.6705 39.3947 46.337 38.5725 46.337C37.7503 46.337 37.0838 45.6705 37.0838 44.8483C37.0838 44.0261 37.7503 43.3595 38.5725 43.3595C39.3947 43.3595 40.0613 44.0261 40.0613 44.8483Z" stroke="#109648" stroke-width="2.41417" stroke-linecap="round"/>
</svg>
