<svg width="320" height="320" viewBox="0 0 320 320" fill="none" xmlns="http://www.w3.org/2000/svg">
<path d="M320 160.001C320 187.802 312.756 215.124 298.981 239.274C285.206 263.423 265.377 283.567 241.447 297.719C217.516 311.872 190.312 319.544 162.513 319.981C134.715 320.417 107.282 313.603 82.9194 300.21C58.5565 286.816 38.104 267.305 23.5776 243.6C9.05119 219.895 0.952247 192.814 0.0789662 165.026C-0.794315 137.238 5.5882 109.702 18.5975 85.1318C31.6068 60.5615 50.7938 39.805 74.2677 24.9081L160 160.001H320Z" fill="#003F5C"/>
<path d="M73.8759 25.1575C108.173 3.25211 149.528 -4.76132 189.525 2.74817L160 160.001L73.8759 25.1575Z" fill="#7A5195"/>
<path d="M190.261 2.88813C230.222 10.5848 265.748 33.2194 289.61 66.1852L160 160.001L190.261 2.88813Z" fill="#EF5675"/>
<path d="M290.262 67.0936C309.882 94.6023 320.29 127.616 319.994 161.403L160 160.001L290.262 67.0936Z" fill="#FFA600"/>
</svg>
