<svg width="12" height="11" viewBox="0 0 12 11" fill="none" xmlns="http://www.w3.org/2000/svg">
<path d="M10.6665 4.83332H6.6665V0.833323C6.6665 0.656512 6.59627 0.486943 6.47124 0.361919C6.34622 0.236895 6.17665 0.166656 5.99984 0.166656C5.82303 0.166656 5.65346 0.236895 5.52843 0.361919C5.40341 0.486943 5.33317 0.656512 5.33317 0.833323V4.83332H1.33317C1.15636 4.83332 0.98679 4.90356 0.861766 5.02859C0.736742 5.15361 0.666504 5.32318 0.666504 5.49999C0.666504 5.6768 0.736742 5.84637 0.861766 5.97139C0.98679 6.09642 1.15636 6.16666 1.33317 6.16666H5.33317V10.1667C5.33317 10.3435 5.40341 10.513 5.52843 10.6381C5.65346 10.7631 5.82303 10.8333 5.99984 10.8333C6.17665 10.8333 6.34622 10.7631 6.47124 10.6381C6.59627 10.513 6.6665 10.3435 6.6665 10.1667V6.16666H10.6665C10.8433 6.16666 11.0129 6.09642 11.1379 5.97139C11.2629 5.84637 11.3332 5.6768 11.3332 5.49999C11.3332 5.32318 11.2629 5.15361 11.1379 5.02859C11.0129 4.90356 10.8433 4.83332 10.6665 4.83332Z" fill="#109648"/>
</svg>
