<svg width="32" height="32" viewBox="0 0 32 32" fill="none" xmlns="http://www.w3.org/2000/svg">
<path d="M1.38683 23.3598C1.47572 23.2176 1.61794 23.2087 1.8135 23.3331C6.21487 25.8994 11.2254 27.235 16.3202 27.1998C19.8506 27.1912 23.3492 26.5312 26.6402 25.2531C26.7291 25.2176 26.8579 25.1642 27.0268 25.0931C27.1957 25.022 27.3157 24.9687 27.3868 24.9331C27.4922 24.8757 27.6154 24.8602 27.7316 24.8899C27.8479 24.9196 27.9486 24.9922 28.0135 25.0931C28.1646 25.3064 28.1157 25.502 27.8668 25.6798C27.5468 25.9109 27.1379 26.1776 26.6402 26.4798C25.0395 27.4161 23.3163 28.1251 21.5202 28.5864C19.7202 29.0729 17.8647 29.3239 16.0002 29.3331C13.3098 29.3485 10.6408 28.8554 8.1335 27.8798C5.69071 26.9284 3.44091 25.5414 1.4935 23.7864C1.44879 23.7566 1.41125 23.7172 1.38358 23.6711C1.35592 23.6249 1.33881 23.5733 1.3335 23.5198C1.33483 23.4623 1.35341 23.4066 1.38683 23.3598V23.3598ZM9.4135 15.7598C9.38152 14.6422 9.69841 13.5424 10.3202 12.6131C10.9394 11.7301 11.8006 11.0448 12.8002 10.6398C13.9367 10.1861 15.13 9.89 16.3468 9.75978C16.8268 9.70645 17.6091 9.63533 18.6935 9.54645V9.09311C18.7609 8.30955 18.6326 7.52151 18.3202 6.79978C18.1184 6.52846 17.8511 6.31276 17.5433 6.17285C17.2355 6.03294 16.8972 5.97339 16.5602 5.99978H16.3468C15.7975 6.03925 15.2705 6.2334 14.8268 6.55978C14.3958 6.88662 14.1012 7.36169 14.0002 7.89311C13.9896 8.0393 13.9319 8.17811 13.8358 8.28871C13.7396 8.39931 13.6101 8.47571 13.4668 8.50645L10.4002 8.13311C10.0979 8.062 9.94683 7.902 9.94683 7.65311C9.94817 7.59004 9.95712 7.52737 9.9735 7.46645C10.0767 6.75628 10.3284 6.07582 10.712 5.46935C11.0957 4.86288 11.6027 4.34399 12.2002 3.94645C13.4456 3.16209 14.876 2.72054 16.3468 2.66645H17.0135C18.7389 2.56274 20.4383 3.126 21.7602 4.23978C21.9386 4.41837 22.1035 4.61001 22.2535 4.81311C22.3849 4.98754 22.5052 5.17013 22.6135 5.35978C22.7236 5.57935 22.8043 5.81247 22.8535 6.05311C22.9246 6.35533 22.9779 6.56422 23.0135 6.67978C23.0647 6.92542 23.0915 7.17553 23.0935 7.42645C23.1113 7.80867 23.1202 8.03533 23.1202 8.10645V14.5598C23.1151 14.9902 23.1827 15.4185 23.3202 15.8264C23.4101 16.1186 23.5403 16.3968 23.7068 16.6531C23.8313 16.822 24.0357 17.0931 24.3202 17.4664C24.4138 17.5901 24.4694 17.7384 24.4802 17.8931C24.4776 17.968 24.4568 18.0411 24.4197 18.1062C24.3825 18.1712 24.33 18.2262 24.2668 18.2664C22.7913 19.5464 21.9913 20.2398 21.8668 20.3464C21.7553 20.4257 21.6241 20.4726 21.4877 20.482C21.3512 20.4914 21.2148 20.463 21.0935 20.3998C20.8446 20.1864 20.6268 19.982 20.4402 19.7864C20.2535 19.5909 20.1202 19.4487 20.0402 19.3598C19.9019 19.1936 19.7729 19.02 19.6535 18.8398C19.4757 18.582 19.3513 18.4087 19.2802 18.3198C18.5087 19.2537 17.4933 19.9552 16.3468 20.3464C15.6164 20.54 14.8623 20.6298 14.1068 20.6131C13.4887 20.6358 12.8722 20.5355 12.2932 20.318C11.7141 20.1006 11.184 19.7703 10.7335 19.3464C10.2764 18.8731 9.92302 18.3097 9.69575 17.6921C9.46849 17.0746 9.37236 16.4165 9.4135 15.7598V15.7598ZM14.0002 15.2264C13.97 15.8261 14.1543 16.417 14.5202 16.8931C14.6894 17.0985 14.9038 17.2619 15.1467 17.3706C15.3896 17.4793 15.6543 17.5304 15.9202 17.5198C15.9963 17.5172 16.0722 17.5083 16.1468 17.4931C16.2127 17.4793 16.2796 17.4704 16.3468 17.4664C16.7221 17.3648 17.0712 17.1836 17.3703 16.9351C17.6693 16.6867 17.9115 16.3768 18.0802 16.0264C18.279 15.6805 18.4271 15.3078 18.5202 14.9198C18.605 14.6013 18.6586 14.2753 18.6802 13.9464C18.6891 13.6976 18.6935 13.2887 18.6935 12.7198V12.0531C17.9055 12.0288 17.1175 12.1004 16.3468 12.2664C15.6626 12.3901 15.0469 12.7588 14.615 13.3037C14.1831 13.8485 13.9645 14.5321 14.0002 15.2264V15.2264ZM25.2002 23.8131C25.2417 23.7339 25.2958 23.6619 25.3602 23.5998C25.7488 23.324 26.1817 23.1165 26.6402 22.9864C27.2845 22.8133 27.9466 22.7148 28.6135 22.6931C28.7827 22.6749 28.9538 22.6839 29.1202 22.7198C29.9202 22.7909 30.4002 22.9242 30.5602 23.1198C30.641 23.2663 30.678 23.4329 30.6668 23.5998V23.7864C30.6368 24.545 30.4649 25.2912 30.1602 25.9864C29.8635 26.772 29.3781 27.4726 28.7468 28.0264C28.681 28.0878 28.5965 28.1254 28.5068 28.1331C28.4697 28.1327 28.4331 28.1236 28.4002 28.1064C28.2935 28.0531 28.2668 27.9553 28.3202 27.8131C28.8263 26.8 29.1598 25.7094 29.3068 24.5864C29.3192 24.4364 29.2817 24.2864 29.2002 24.1598C29.0224 23.9464 28.5246 23.8398 27.7068 23.8398C27.4046 23.8398 27.0491 23.8576 26.6402 23.8931C26.1957 23.9464 25.7868 23.9998 25.4135 24.0531C25.3383 24.0621 25.2623 24.0431 25.2002 23.9998C25.1841 23.9878 25.1727 23.9706 25.1679 23.9512C25.163 23.9318 25.165 23.9112 25.1735 23.8931C25.1767 23.8649 25.1858 23.8376 25.2002 23.8131Z" fill="black"/>
</svg>
