<svg width="33" height="33" viewBox="0 0 33 33" fill="none" xmlns="http://www.w3.org/2000/svg">
<path d="M20.4199 7.54996C20.9239 6.969 21.3083 6.29419 21.5508 5.56428C21.7934 4.83437 21.8893 4.06373 21.8332 3.29663C20.2857 3.42155 18.8492 4.14937 17.8332 5.3233C17.3467 5.88593 16.978 6.54047 16.749 7.24816C16.5199 7.95584 16.4352 8.70229 16.4999 9.4433C17.2547 9.44959 18.0009 9.28209 18.6807 8.95378C19.3604 8.62546 19.9555 8.14513 20.4199 7.54996V7.54996ZM23.7799 17.47C23.7888 16.4483 24.0579 15.4457 24.5618 14.5569C25.0657 13.6681 25.7878 12.9223 26.6599 12.39C26.1095 11.5969 25.3819 10.9431 24.5349 10.4802C23.6878 10.0173 22.7445 9.75817 21.7799 9.7233C19.6999 9.50996 17.7799 10.9366 16.6732 10.9366C15.5665 10.9366 14.0065 9.74996 12.2732 9.77663C11.1401 9.81396 10.0359 10.1443 9.06848 10.7355C8.10105 11.3268 7.30336 12.1586 6.75322 13.15C4.40655 17.23 6.15322 23.2966 8.49988 26.59C9.56655 28.2033 10.8999 30.03 12.6599 29.9633C14.4199 29.8966 14.9932 28.87 17.0332 28.87C19.0732 28.87 19.6999 29.9633 21.4332 29.9233C23.1665 29.8833 24.3932 28.27 25.5132 26.6566C26.3066 25.4853 26.9264 24.2054 27.3532 22.8566C26.2965 22.406 25.395 21.6557 24.7599 20.6984C24.1249 19.7411 23.7842 18.6187 23.7799 17.47V17.47Z" fill="#080708"/>
</svg>
