<svg width="25" height="24" viewBox="0 0 25 24" fill="none" xmlns="http://www.w3.org/2000/svg">
<path d="M18.4348 11.29C18.3418 11.1963 18.2312 11.1219 18.1094 11.0711C17.9875 11.0203 17.8568 10.9942 17.7248 10.9942C17.5928 10.9942 17.4621 11.0203 17.3402 11.0711C17.2184 11.1219 17.1078 11.1963 17.0148 11.29L13.7248 14.59V7C13.7248 6.73478 13.6194 6.48043 13.4319 6.29289C13.2444 6.10536 12.99 6 12.7248 6C12.4596 6 12.2052 6.10536 12.0177 6.29289C11.8302 6.48043 11.7248 6.73478 11.7248 7V14.59L8.43479 11.29C8.24649 11.1017 7.9911 10.9959 7.72479 10.9959C7.45849 10.9959 7.2031 11.1017 7.01479 11.29C6.82649 11.4783 6.7207 11.7337 6.7207 12C6.7207 12.2663 6.82649 12.5217 7.01479 12.71L12.0148 17.71C12.1099 17.801 12.222 17.8724 12.3448 17.92C12.4645 17.9729 12.5939 18.0002 12.7248 18.0002C12.8557 18.0002 12.9851 17.9729 13.1048 17.92C13.2275 17.8724 13.3397 17.801 13.4348 17.71L18.4348 12.71C18.5285 12.617 18.6029 12.5064 18.6537 12.3846C18.7045 12.2627 18.7306 12.132 18.7306 12C18.7306 11.868 18.7045 11.7373 18.6537 11.6154C18.6029 11.4936 18.5285 11.383 18.4348 11.29Z" fill="black"/>
</svg>
