<svg width="32" height="32" viewBox="0 0 32 32" fill="none" xmlns="http://www.w3.org/2000/svg">
<path d="M26.8134 23.32L20 11.64V5.33334H21.3334C21.687 5.33334 22.0261 5.19286 22.2762 4.94281C22.5262 4.69277 22.6667 4.35363 22.6667 4.00001C22.6667 3.64638 22.5262 3.30724 22.2762 3.0572C22.0261 2.80715 21.687 2.66667 21.3334 2.66667H10.6667C10.3131 2.66667 9.97394 2.80715 9.72389 3.0572C9.47384 3.30724 9.33336 3.64638 9.33336 4.00001C9.33336 4.35363 9.47384 4.69277 9.72389 4.94281C9.97394 5.19286 10.3131 5.33334 10.6667 5.33334H12V11.64L5.1867 23.32C4.83276 23.9276 4.64525 24.6178 4.64309 25.321C4.64092 26.0242 4.82417 26.7156 5.17436 27.3253C5.52455 27.9351 6.02931 28.4418 6.63776 28.7944C7.24621 29.1469 7.93684 29.3328 8.64003 29.3333H23.3067C24.0099 29.3328 24.7005 29.1469 25.309 28.7944C25.9174 28.4418 26.4222 27.9351 26.7724 27.3253C27.1226 26.7156 27.3058 26.0242 27.3036 25.321C27.3015 24.6178 27.114 23.9276 26.76 23.32H26.8134ZM14.48 12.6533C14.5976 12.4553 14.6619 12.2302 14.6667 12V5.33334H17.3334V12C17.3358 12.2348 17.4002 12.4648 17.52 12.6667L18.6667 14.6667H13.3334L14.48 12.6533ZM24.5067 25.9867C24.3904 26.1882 24.2233 26.3558 24.0221 26.4727C23.821 26.5897 23.5927 26.6519 23.36 26.6533H8.69336C8.46068 26.6519 8.23241 26.5897 8.03125 26.4727C7.83009 26.3558 7.66304 26.1882 7.5467 25.9867C7.42967 25.784 7.36806 25.5541 7.36806 25.32C7.36806 25.086 7.42967 24.856 7.5467 24.6533L11.7734 17.3333H20.24L24.5067 24.6667C24.6237 24.8694 24.6853 25.0993 24.6853 25.3333C24.6853 25.5674 24.6237 25.7973 24.5067 26V25.9867ZM13.3334 20C13.0697 20 12.8119 20.0782 12.5926 20.2247C12.3733 20.3712 12.2024 20.5795 12.1015 20.8231C12.0006 21.0667 11.9742 21.3348 12.0257 21.5935C12.0771 21.8521 12.2041 22.0897 12.3906 22.2761C12.577 22.4626 12.8146 22.5896 13.0732 22.6411C13.3319 22.6925 13.6 22.6661 13.8436 22.5652C14.0872 22.4643 14.2955 22.2934 14.442 22.0741C14.5885 21.8548 14.6667 21.597 14.6667 21.3333C14.6667 20.9797 14.5262 20.6406 14.2762 20.3905C14.0261 20.1405 13.687 20 13.3334 20ZM18.6667 21.3333C18.403 21.3333 18.1452 21.4115 17.9259 21.558C17.7067 21.7046 17.5358 21.9128 17.4349 22.1564C17.3339 22.4001 17.3075 22.6682 17.359 22.9268C17.4104 23.1854 17.5374 23.423 17.7239 23.6095C17.9104 23.796 18.1479 23.9229 18.4066 23.9744C18.6652 24.0258 18.9333 23.9994 19.1769 23.8985C19.4206 23.7976 19.6288 23.6267 19.7753 23.4074C19.9218 23.1882 20 22.9304 20 22.6667C20 22.3131 19.8596 21.9739 19.6095 21.7239C19.3595 21.4738 19.0203 21.3333 18.6667 21.3333Z" fill="#080708"/>
</svg>
