<svg width="33" height="33" viewBox="0 0 33 33" fill="none" xmlns="http://www.w3.org/2000/svg">
<path d="M30.6365 13.9683C30.581 13.6608 30.4192 13.3826 30.1794 13.1822C29.9397 12.9819 29.6371 12.872 29.3247 12.872H16.7668C16.5917 12.8719 16.4183 12.9064 16.2565 12.9734C16.0947 13.0404 15.9477 13.1386 15.8239 13.2624C15.7001 13.3862 15.6019 13.5332 15.5349 13.695C15.4679 13.8568 15.4334 14.0302 15.4335 14.2053V19.3628C15.4334 19.538 15.4679 19.7114 15.5349 19.8731C15.6019 20.0349 15.7001 20.1819 15.8239 20.3058C15.9477 20.4296 16.0947 20.5278 16.2565 20.5948C16.4183 20.6618 16.5917 20.6962 16.7668 20.6962H22.05C21.6736 21.3316 21.1575 21.873 20.5409 22.2795C19.414 22.994 18.1007 23.3583 16.7668 23.3264C15.3834 23.3106 14.0402 22.8591 12.9281 22.0363C11.816 21.2134 10.9915 20.0609 10.5718 18.7427L10.5714 18.7404C10.1044 17.3716 10.1044 15.8866 10.5714 14.5178L10.5717 14.5156C10.9917 13.1976 11.8163 12.0454 12.9284 11.2228C14.0405 10.4002 15.3836 9.94896 16.7668 9.93317C17.5353 9.91553 18.2998 10.0499 19.0163 10.3285C19.7328 10.6072 20.3872 11.0246 20.9419 11.5569C21.1938 11.7976 21.5299 11.9302 21.8784 11.9263C22.2268 11.9224 22.5599 11.7823 22.8064 11.536L26.6307 7.71181C26.7574 7.58528 26.8573 7.4345 26.9244 7.2685C26.9915 7.1025 27.0244 6.92466 27.0213 6.74563C27.0181 6.5666 26.9789 6.39004 26.906 6.22651C26.833 6.06298 26.7279 5.91583 26.5968 5.79385C23.9357 3.29878 20.4145 1.92659 16.7668 1.96311C14.0467 1.95507 11.3785 2.70713 9.06296 4.1345C6.74746 5.56187 4.8768 7.60777 3.66191 10.0415L3.65995 10.0438C2.62999 12.0862 2.09562 14.3424 2.10013 16.6298C2.10337 18.9162 2.63735 21.1707 3.66002 23.2157L3.66198 23.2181C4.87686 25.6518 6.74751 27.6977 9.063 29.125C11.3785 30.5524 14.0467 31.3045 16.7668 31.2964C20.3473 31.3871 23.8269 30.1054 26.493 27.7138L26.494 27.7131L26.4951 27.712L26.4953 27.7118L26.4954 27.7117C27.9405 26.3214 29.0789 24.6444 29.8375 22.7882C30.5961 20.9319 30.9581 18.9376 30.9003 16.9332C30.9008 15.939 30.8126 14.9468 30.6365 13.9683ZM16.7668 4.62978C19.2616 4.6055 21.6974 5.38784 23.7115 6.86025L21.7732 8.79778C20.3036 7.78052 18.554 7.24539 16.7668 7.2665C15.1351 7.27489 13.5351 7.71795 12.1315 8.55008C10.7279 9.38221 9.57141 10.5733 8.78105 12.0009L7.35543 10.8959L6.57543 10.291C7.64846 8.55479 9.14875 7.12272 10.933 6.13159C12.7172 5.14047 14.7258 4.6234 16.7668 4.62978ZM5.40605 20.5009C4.55362 17.9905 4.55362 15.269 5.40605 12.7587L7.78235 14.6011C7.47853 15.9361 7.47853 17.3222 7.78235 18.6571L5.40605 20.5009ZM16.7668 28.6298C14.7257 28.6361 12.7171 28.119 10.9329 27.1278C9.14865 26.1367 7.64835 24.7046 6.57533 22.9683L7.07987 22.577L8.78105 21.2574C9.57106 22.6853 10.7274 23.8768 12.1311 24.7092C13.5347 25.5416 15.1349 25.9848 16.7668 25.9931C18.2943 26.011 19.8045 25.668 21.1744 24.992L23.43 26.7431C21.4462 28.0213 19.1261 28.6782 16.7668 28.6298ZM25.468 24.9488L25.224 24.7595L23.3875 23.3338C24.3504 22.2934 24.9977 21.0007 25.2537 19.6064C25.2895 19.4139 25.2825 19.216 25.2331 19.0265C25.1838 18.8371 25.0933 18.6608 24.9681 18.5103C24.8429 18.3598 24.6862 18.2387 24.5089 18.1556C24.3317 18.0725 24.1383 18.0295 23.9425 18.0296H18.1001V15.5386H28.1652C28.2108 15.9996 28.2336 16.4657 28.2336 16.9332C28.3116 19.8516 27.329 22.6994 25.4679 24.9488H25.468Z" fill="#080708"/>
</svg>
