<svg width="32" height="32" viewBox="0 0 32 32" fill="none" xmlns="http://www.w3.org/2000/svg">
<path d="M25.3335 9.33332H21.3335V7.99999C21.3335 6.5855 20.7716 5.22895 19.7714 4.22875C18.7712 3.22856 17.4147 2.66666 16.0002 2.66666C14.5857 2.66666 13.2291 3.22856 12.2289 4.22875C11.2287 5.22895 10.6668 6.5855 10.6668 7.99999V9.33332H6.66683C6.31321 9.33332 5.97407 9.4738 5.72402 9.72385C5.47397 9.9739 5.3335 10.313 5.3335 10.6667V25.3333C5.3335 26.3942 5.75492 27.4116 6.50507 28.1618C7.25521 28.9119 8.27263 29.3333 9.3335 29.3333H22.6668C23.7277 29.3333 24.7451 28.9119 25.4953 28.1618C26.2454 27.4116 26.6668 26.3942 26.6668 25.3333V10.6667C26.6668 10.313 26.5264 9.9739 26.2763 9.72385C26.0263 9.4738 25.6871 9.33332 25.3335 9.33332ZM13.3335 7.99999C13.3335 7.29275 13.6144 6.61447 14.1145 6.11437C14.6146 5.61427 15.2929 5.33332 16.0002 5.33332C16.7074 5.33332 17.3857 5.61427 17.8858 6.11437C18.3859 6.61447 18.6668 7.29275 18.6668 7.99999V9.33332H13.3335V7.99999ZM24.0002 25.3333C24.0002 25.6869 23.8597 26.0261 23.6096 26.2761C23.3596 26.5262 23.0205 26.6667 22.6668 26.6667H9.3335C8.97987 26.6667 8.64074 26.5262 8.39069 26.2761C8.14064 26.0261 8.00016 25.6869 8.00016 25.3333V12H10.6668V13.3333C10.6668 13.6869 10.8073 14.0261 11.0574 14.2761C11.3074 14.5262 11.6465 14.6667 12.0002 14.6667C12.3538 14.6667 12.6929 14.5262 12.943 14.2761C13.193 14.0261 13.3335 13.6869 13.3335 13.3333V12H18.6668V13.3333C18.6668 13.6869 18.8073 14.0261 19.0574 14.2761C19.3074 14.5262 19.6465 14.6667 20.0002 14.6667C20.3538 14.6667 20.6929 14.5262 20.943 14.2761C21.193 14.0261 21.3335 13.6869 21.3335 13.3333V12H24.0002V25.3333Z" fill="#080708"/>
</svg>
