<svg width="32" height="32" viewBox="0 0 32 32" fill="none" xmlns="http://www.w3.org/2000/svg">
<path d="M2.6665 19.5598C2.6665 20.2671 2.94746 20.9454 3.44755 21.4455C3.94765 21.9456 4.62593 22.2265 5.33317 22.2265C6.04041 22.2265 6.71869 21.9456 7.21879 21.4455C7.71889 20.9454 7.99984 20.2671 7.99984 19.5598V16.8932H5.33317C4.62593 16.8932 3.94765 17.1741 3.44755 17.6742C2.94746 18.1743 2.6665 18.8526 2.6665 19.5598V19.5598ZM19.5198 15.1065C20.2271 15.1065 20.9054 14.8256 21.4055 14.3255C21.9056 13.8254 22.1865 13.1471 22.1865 12.4398V5.33317C22.1865 4.62593 21.9056 3.94765 21.4055 3.44755C20.9054 2.94746 20.2271 2.6665 19.5198 2.6665C18.8126 2.6665 18.1343 2.94746 17.6342 3.44755C17.1341 3.94765 16.8532 4.62593 16.8532 5.33317V12.4398C16.8532 12.7923 16.923 13.1412 17.0587 13.4665C17.1944 13.7918 17.3932 14.087 17.6436 14.3349C17.8941 14.5829 18.1912 14.7788 18.5178 14.9112C18.8444 15.0437 19.1941 15.11 19.5465 15.1065H19.5198ZM29.2798 12.4398C29.2798 11.7326 28.9989 11.0543 28.4988 10.5542C27.9987 10.0541 27.3204 9.77317 26.6132 9.77317C25.9059 9.77317 25.2276 10.0541 24.7276 10.5542C24.2275 11.0543 23.9465 11.7326 23.9465 12.4398V15.1065H26.6132C26.9678 15.1136 27.3203 15.0499 27.65 14.919C27.9798 14.7882 28.2801 14.5929 28.5334 14.3446C28.7867 14.0962 28.9879 13.7999 29.1252 13.4728C29.2625 13.1457 29.3332 12.7946 29.3332 12.4398H29.2798ZM12.4532 16.8932C11.7459 16.8932 11.0676 17.1741 10.5676 17.6742C10.0675 18.1743 9.7865 18.8526 9.7865 19.5598V26.6665C9.7865 27.3737 10.0675 28.052 10.5676 28.5521C11.0676 29.0522 11.7459 29.3332 12.4532 29.3332C13.1604 29.3332 13.8387 29.0522 14.3388 28.5521C14.8389 28.052 15.1198 27.3737 15.1198 26.6665V19.5598C15.1198 18.8526 14.8389 18.1743 14.3388 17.6742C13.8387 17.1741 13.1604 16.8932 12.4532 16.8932ZM19.5465 23.9998H16.8798V26.6665C16.8798 27.1939 17.0362 27.7095 17.3293 28.148C17.6223 28.5866 18.0387 28.9283 18.526 29.1302C19.0133 29.332 19.5495 29.3848 20.0667 29.2819C20.584 29.179 21.0592 28.9251 21.4321 28.5521C21.8051 28.1792 22.059 27.704 22.1619 27.1867C22.2648 26.6695 22.212 26.1333 22.0102 25.646C21.8083 25.1587 21.4666 24.7423 21.028 24.4493C20.5895 24.1562 20.0739 23.9998 19.5465 23.9998ZM26.6665 16.8932H19.5465C18.8393 16.8932 18.161 17.1741 17.6609 17.6742C17.1608 18.1743 16.8798 18.8526 16.8798 19.5598C16.8798 20.2671 17.1608 20.9454 17.6609 21.4455C18.161 21.9456 18.8393 22.2265 19.5465 22.2265H26.6665C27.3737 22.2265 28.052 21.9456 28.5521 21.4455C29.0522 20.9454 29.3332 20.2671 29.3332 19.5598C29.3332 18.8526 29.0522 18.1743 28.5521 17.6742C28.052 17.1741 27.3737 16.8932 26.6665 16.8932V16.8932ZM12.4532 9.77317H5.33317C4.62593 9.77317 3.94765 10.0541 3.44755 10.5542C2.94746 11.0543 2.6665 11.7326 2.6665 12.4398C2.6665 13.1471 2.94746 13.8254 3.44755 14.3255C3.94765 14.8256 4.62593 15.1065 5.33317 15.1065H12.4532C13.1604 15.1065 13.8387 14.8256 14.3388 14.3255C14.8389 13.8254 15.1198 13.1471 15.1198 12.4398C15.1198 11.7326 14.8389 11.0543 14.3388 10.5542C13.8387 10.0541 13.1604 9.77317 12.4532 9.77317V9.77317ZM12.4532 2.6665C11.7459 2.6665 11.0676 2.94746 10.5676 3.44755C10.0675 3.94765 9.7865 4.62593 9.7865 5.33317C9.7865 6.04041 10.0675 6.71869 10.5676 7.21879C11.0676 7.71889 11.7459 7.99984 12.4532 7.99984H15.1198V5.33317C15.1198 4.62593 14.8389 3.94765 14.3388 3.44755C13.8387 2.94746 13.1604 2.6665 12.4532 2.6665Z" fill="black"/>
</svg>
