<svg width="33" height="33" viewBox="0 0 33 33" fill="none" xmlns="http://www.w3.org/2000/svg">
<path d="M29.8332 8.36325C28.831 8.79804 27.7711 9.08547 26.6865 9.21658C27.8307 8.53301 28.6882 7.45763 29.0998 6.18992C28.0246 6.83 26.8475 7.28098 25.6198 7.52325C24.7992 6.63335 23.7065 6.04098 22.5129 5.83905C21.3194 5.63713 20.0926 5.83706 19.0249 6.4075C17.9572 6.97795 17.1091 7.88663 16.6135 8.99103C16.1179 10.0954 16.0029 11.3331 16.2865 12.5099C14.1124 12.4 11.9858 11.8339 10.0447 10.8484C8.10366 9.86295 6.39163 8.48018 5.01984 6.78992C4.53869 7.63014 4.28586 8.58168 4.2865 9.54992C4.2848 10.4491 4.50546 11.3347 4.92884 12.128C5.35223 12.9213 5.9652 13.5975 6.71317 14.0966C5.84381 14.0729 4.99302 13.8397 4.23317 13.4166V13.4833C4.23969 14.7431 4.68116 15.962 5.48292 16.9339C6.28468 17.9057 7.39751 18.5708 8.63317 18.8166C8.15751 18.9613 7.66367 19.0377 7.1665 19.0433C6.82236 19.0392 6.47907 19.008 6.13984 18.9499C6.49172 20.0337 7.17267 20.9808 8.08794 21.6595C9.00321 22.3382 10.1073 22.7147 11.2465 22.7366C9.32277 24.2503 6.94768 25.0764 4.49984 25.0833C4.05415 25.0847 3.60882 25.058 3.1665 25.0033C5.66574 26.6169 8.57825 27.4735 11.5532 27.4699C13.6061 27.4912 15.6427 27.1033 17.544 26.3287C19.4453 25.5541 21.1732 24.4084 22.6268 22.9586C24.0804 21.5087 25.2305 19.7838 26.0099 17.8845C26.7894 15.9851 27.1826 13.9496 27.1665 11.8966C27.1665 11.6699 27.1665 11.4299 27.1665 11.1899C28.2128 10.4097 29.1151 9.45315 29.8332 8.36325Z" fill="#080708"/>
</svg>
