<svg width="173" height="47" viewBox="0 0 173 47" fill="none" xmlns="http://www.w3.org/2000/svg">
<rect x="1" y="1.14465" width="171" height="45" rx="6" fill="white"/>
<circle cx="27" cy="23.6447" r="16" fill="#E0E2DB"/>
<path d="M57.012 30.1447V20.1147H53.068V18.2447H63.166V20.1147H59.222V30.1447H57.012ZM67.9579 30.2637C66.9492 30.2637 66.0652 30.0653 65.3059 29.6687C64.5579 29.2607 63.9742 28.7053 63.5549 28.0027C63.1469 27.3 62.9429 26.501 62.9429 25.6057C62.9429 24.699 63.1412 23.9 63.5379 23.2087C63.9459 22.506 64.5012 21.9563 65.2039 21.5597C65.9179 21.163 66.7282 20.9647 67.6349 20.9647C68.5189 20.9647 69.3065 21.1573 69.9979 21.5427C70.6892 21.928 71.2332 22.472 71.6299 23.1747C72.0265 23.8773 72.2249 24.7047 72.2249 25.6567C72.2249 25.7473 72.2192 25.8493 72.2079 25.9627C72.2079 26.076 72.2022 26.1837 72.1909 26.2857H64.6259V24.8747H71.0689L70.2359 25.3167C70.2472 24.7953 70.1395 24.3363 69.9129 23.9397C69.6862 23.543 69.3745 23.2313 68.9779 23.0047C68.5925 22.778 68.1449 22.6647 67.6349 22.6647C67.1135 22.6647 66.6545 22.778 66.2579 23.0047C65.8725 23.2313 65.5665 23.5487 65.3399 23.9567C65.1245 24.3533 65.0169 24.8237 65.0169 25.3677V25.7077C65.0169 26.2517 65.1415 26.7333 65.3909 27.1527C65.6402 27.572 65.9915 27.895 66.4449 28.1217C66.8982 28.3483 67.4195 28.4617 68.0089 28.4617C68.5189 28.4617 68.9779 28.3823 69.3859 28.2237C69.7939 28.065 70.1565 27.8157 70.4739 27.4757L71.6129 28.7847C71.2049 29.2607 70.6892 29.629 70.0659 29.8897C69.4539 30.139 68.7512 30.2637 67.9579 30.2637ZM77.0711 30.2637C76.3117 30.2637 75.5807 30.1673 74.8781 29.9747C74.1867 29.7707 73.6371 29.527 73.2291 29.2437L74.0451 27.6287C74.4531 27.8893 74.9404 28.1047 75.5071 28.2747C76.0737 28.4447 76.6404 28.5297 77.2071 28.5297C77.8757 28.5297 78.3574 28.439 78.6521 28.2577C78.9581 28.0763 79.1111 27.8327 79.1111 27.5267C79.1111 27.2773 79.0091 27.0903 78.8051 26.9657C78.6011 26.8297 78.3347 26.7277 78.0061 26.6597C77.6774 26.5917 77.3091 26.5293 76.9011 26.4727C76.5044 26.416 76.1021 26.3423 75.6941 26.2517C75.2974 26.1497 74.9347 26.008 74.6061 25.8267C74.2774 25.634 74.0111 25.379 73.8071 25.0617C73.6031 24.7443 73.5011 24.325 73.5011 23.8037C73.5011 23.2257 73.6654 22.727 73.9941 22.3077C74.3227 21.877 74.7817 21.5483 75.3711 21.3217C75.9717 21.0837 76.6801 20.9647 77.4961 20.9647C78.1081 20.9647 78.7257 21.0327 79.3491 21.1687C79.9724 21.3047 80.4881 21.4973 80.8961 21.7467L80.0801 23.3617C79.6494 23.101 79.2131 22.9253 78.7711 22.8347C78.3404 22.7327 77.9097 22.6817 77.4791 22.6817C76.8331 22.6817 76.3514 22.778 76.0341 22.9707C75.7281 23.1633 75.5751 23.407 75.5751 23.7017C75.5751 23.9737 75.6771 24.1777 75.8811 24.3137C76.0851 24.4497 76.3514 24.5573 76.6801 24.6367C77.0087 24.716 77.3714 24.784 77.7681 24.8407C78.1761 24.886 78.5784 24.9597 78.9751 25.0617C79.3717 25.1637 79.7344 25.3053 80.0631 25.4867C80.4031 25.6567 80.6751 25.9003 80.8791 26.2177C81.0831 26.535 81.1851 26.9487 81.1851 27.4587C81.1851 28.0253 81.0151 28.5183 80.6751 28.9377C80.3464 29.357 79.8761 29.6857 79.2641 29.9237C78.6521 30.1503 77.9211 30.2637 77.0711 30.2637ZM86.4321 30.2637C85.4348 30.2637 84.6641 30.0087 84.1201 29.4987C83.5761 28.9773 83.3041 28.2123 83.3041 27.2037V19.0607H85.4291V27.1527C85.4291 27.5833 85.5368 27.9177 85.7521 28.1557C85.9788 28.3937 86.2904 28.5127 86.6871 28.5127C87.1631 28.5127 87.5598 28.388 87.8771 28.1387L88.4721 29.6517C88.2228 29.8557 87.9168 30.0087 87.5541 30.1107C87.1914 30.2127 86.8174 30.2637 86.4321 30.2637ZM81.8081 22.8347V21.1347H87.8601V22.8347H81.8081ZM100.239 30.3147C98.6074 30.3147 97.3267 29.8557 96.3974 28.9377C95.4794 28.0197 95.0204 26.6937 95.0204 24.9597V18.2447H97.2304V24.8747C97.2304 26.0987 97.4911 26.9883 98.0124 27.5437C98.5451 28.099 99.2931 28.3767 100.256 28.3767C101.22 28.3767 101.962 28.099 102.483 27.5437C103.005 26.9883 103.265 26.0987 103.265 24.8747V18.2447H105.441V24.9597C105.441 26.6937 104.977 28.0197 104.047 28.9377C103.129 29.8557 101.86 30.3147 100.239 30.3147ZM111.137 30.2637C110.378 30.2637 109.647 30.1673 108.944 29.9747C108.253 29.7707 107.703 29.527 107.295 29.2437L108.111 27.6287C108.519 27.8893 109.007 28.1047 109.573 28.2747C110.14 28.4447 110.707 28.5297 111.273 28.5297C111.942 28.5297 112.424 28.439 112.718 28.2577C113.024 28.0763 113.177 27.8327 113.177 27.5267C113.177 27.2773 113.075 27.0903 112.871 26.9657C112.667 26.8297 112.401 26.7277 112.072 26.6597C111.744 26.5917 111.375 26.5293 110.967 26.4727C110.571 26.416 110.168 26.3423 109.76 26.2517C109.364 26.1497 109.001 26.008 108.672 25.8267C108.344 25.634 108.077 25.379 107.873 25.0617C107.669 24.7443 107.567 24.325 107.567 23.8037C107.567 23.2257 107.732 22.727 108.06 22.3077C108.389 21.877 108.848 21.5483 109.437 21.3217C110.038 21.0837 110.746 20.9647 111.562 20.9647C112.174 20.9647 112.792 21.0327 113.415 21.1687C114.039 21.3047 114.554 21.4973 114.962 21.7467L114.146 23.3617C113.716 23.101 113.279 22.9253 112.837 22.8347C112.407 22.7327 111.976 22.6817 111.545 22.6817C110.899 22.6817 110.418 22.778 110.1 22.9707C109.794 23.1633 109.641 23.407 109.641 23.7017C109.641 23.9737 109.743 24.1777 109.947 24.3137C110.151 24.4497 110.418 24.5573 110.746 24.6367C111.075 24.716 111.438 24.784 111.834 24.8407C112.242 24.886 112.645 24.9597 113.041 25.0617C113.438 25.1637 113.801 25.3053 114.129 25.4867C114.469 25.6567 114.741 25.9003 114.945 26.2177C115.149 26.535 115.251 26.9487 115.251 27.4587C115.251 28.0253 115.081 28.5183 114.741 28.9377C114.413 29.357 113.942 29.6857 113.33 29.9237C112.718 30.1503 111.987 30.2637 111.137 30.2637ZM121.349 30.2637C120.34 30.2637 119.456 30.0653 118.697 29.6687C117.949 29.2607 117.365 28.7053 116.946 28.0027C116.538 27.3 116.334 26.501 116.334 25.6057C116.334 24.699 116.532 23.9 116.929 23.2087C117.337 22.506 117.892 21.9563 118.595 21.5597C119.309 21.163 120.119 20.9647 121.026 20.9647C121.91 20.9647 122.697 21.1573 123.389 21.5427C124.08 21.928 124.624 22.472 125.021 23.1747C125.417 23.8773 125.616 24.7047 125.616 25.6567C125.616 25.7473 125.61 25.8493 125.599 25.9627C125.599 26.076 125.593 26.1837 125.582 26.2857H118.017V24.8747H124.46L123.627 25.3167C123.638 24.7953 123.53 24.3363 123.304 23.9397C123.077 23.543 122.765 23.2313 122.369 23.0047C121.983 22.778 121.536 22.6647 121.026 22.6647C120.504 22.6647 120.045 22.778 119.649 23.0047C119.263 23.2313 118.957 23.5487 118.731 23.9567C118.515 24.3533 118.408 24.8237 118.408 25.3677V25.7077C118.408 26.2517 118.532 26.7333 118.782 27.1527C119.031 27.572 119.382 27.895 119.836 28.1217C120.289 28.3483 120.81 28.4617 121.4 28.4617C121.91 28.4617 122.369 28.3823 122.777 28.2237C123.185 28.065 123.547 27.8157 123.865 27.4757L125.004 28.7847C124.596 29.2607 124.08 29.629 123.457 29.8897C122.845 30.139 122.142 30.2637 121.349 30.2637ZM127.657 30.1447V21.0667H129.68V23.5657L129.442 22.8347C129.714 22.2227 130.139 21.758 130.717 21.4407C131.306 21.1233 132.037 20.9647 132.91 20.9647V22.9877C132.819 22.965 132.734 22.9537 132.655 22.9537C132.575 22.9423 132.496 22.9367 132.417 22.9367C131.612 22.9367 130.972 23.1747 130.496 23.6507C130.02 24.1153 129.782 24.8123 129.782 25.7417V30.1447H127.657Z" fill="#080708"/>
<rect width="18" height="21" transform="translate(144 13.1447)" fill="white"/>
<path d="M145.597 19.6772L152.347 31.3622C152.413 31.4776 152.508 31.5736 152.622 31.6404C152.737 31.7072 152.867 31.7424 153 31.7424C153.133 31.7424 153.263 31.7072 153.378 31.6404C153.492 31.5736 153.587 31.4776 153.652 31.3622L160.402 19.6772C160.468 19.5631 160.503 19.4338 160.503 19.3022C160.503 19.1705 160.468 19.0412 160.402 18.9272C160.336 18.8127 160.241 18.7177 160.127 18.6519C160.012 18.586 159.882 18.5516 159.75 18.5522L146.25 18.5522C146.118 18.5516 145.988 18.586 145.873 18.6519C145.759 18.7177 145.664 18.8127 145.597 18.9272C145.532 19.0412 145.497 19.1705 145.497 19.3022C145.497 19.4338 145.532 19.5631 145.597 19.6772V19.6772ZM158.452 20.0522L153 29.4872L147.547 20.0522L158.452 20.0522Z" fill="#080708"/>
<rect x="1" y="1.14465" width="171" height="45" rx="6" stroke="#080708" stroke-width="1.5"/>
</svg>
